<svg xmlns="http://www.w3.org/2000/svg" xmlns:xlink="http://www.w3.org/1999/xlink" version="1.1" x="0px" y="0px" viewBox="0 0 100 95" width="1500" height="1500" style="enable-background:new 0 0 100 100;" xml:space="preserve">
    <path fill="#1a1b26" d="M44.8,46.5V10.2C44.8,7.3,47.1,5,50,5s5.2,2.3,5.2,5.2v36.3c0,2.9-2.3,5.2-5.2,5.2S44.8,49.3,44.8,46.5z M72.2,21.9  c-1.1-0.8-2.5-1-3.9-0.8c-1.4,0.3-2.5,1-3.3,2.2c-0.8,1.1-1,2.5-0.8,3.9c0.3,1.4,1,2.5,2.2,3.3c8.2,5.5,13.1,14.7,13.1,24.6  c0,16.3-13.3,29.6-29.6,29.6S20.4,71.4,20.4,55.1c0-9.9,4.9-19.1,13.1-24.6c1.1-0.8,1.9-1.9,2.2-3.3c0.3-1.4,0-2.7-0.8-3.9  c-0.8-1.1-1.9-1.9-3.3-2.2c-1.4-0.3-2.7,0-3.9,0.8c-11.1,7.4-17.7,19.8-17.7,33.2C10.1,77.1,28,95,50,95s39.9-17.9,39.9-39.9  C89.9,41.7,83.3,29.3,72.2,21.9z"/>
</svg>
